<svg xmlns="http://www.w3.org/2000/svg" xmlns:xlink="http://www.w3.org/1999/xlink" width="200" zoomAndPan="magnify" viewBox="0 0 1440 809.999993" height="80" preserveAspectRatio="xMidYMid meet" version="1.0"><defs><filter x="0%" y="0%" width="100%" height="100%" id="4e7ce80f5c"><feColorMatrix values="0 0 0 0 1 0 0 0 0 1 0 0 0 0 1 0 0 0 1 0" color-interpolation-filters="sRGB"/></filter><g/><clipPath id="fbc5ff169b"><path d="M 0 0 L 1440 0 L 1440 810 L 0 810 Z M 0 0 " clip-rule="nonzero"/></clipPath><linearGradient x1="697.28101" gradientTransform="matrix(1.047908, 0, 0, 1.048257, 27.65186, 216.725517)" y1="-206.748391" x2="697.28101" gradientUnits="userSpaceOnUse" y2="565.962669" id="fb392e5970"><stop stop-opacity="1" stop-color="rgb(9.799194%, 76.078796%, 39.99939%)" offset="0"/><stop stop-opacity="1" stop-color="rgb(9.799194%, 76.078796%, 39.99939%)" offset="0.25"/><stop stop-opacity="1" stop-color="rgb(9.799194%, 76.078796%, 39.99939%)" offset="0.28125"/><stop stop-opacity="1" stop-color="rgb(9.799194%, 76.078796%, 39.99939%)" offset="0.289063"/><stop stop-opacity="1" stop-color="rgb(9.725952%, 75.802612%, 39.97345%)" offset="0.292969"/><stop stop-opacity="1" stop-color="rgb(9.654236%, 75.526428%, 39.94751%)" offset="0.296875"/><stop stop-opacity="1" stop-color="rgb(9.533691%, 75.068665%, 39.903259%)" offset="0.300781"/><stop stop-opacity="1" stop-color="rgb(9.413147%, 74.612427%, 39.860535%)" offset="0.304688"/><stop stop-opacity="1" stop-color="rgb(9.292603%, 74.154663%, 39.816284%)" offset="0.308594"/><stop stop-opacity="1" stop-color="rgb(9.173584%, 73.696899%, 39.77356%)" offset="0.3125"/><stop stop-opacity="1" stop-color="rgb(9.05304%, 73.239136%, 39.729309%)" offset="0.316406"/><stop stop-opacity="1" stop-color="rgb(8.932495%, 72.782898%, 39.686584%)" offset="0.320313"/><stop stop-opacity="1" stop-color="rgb(8.811951%, 72.325134%, 39.642334%)" offset="0.324219"/><stop stop-opacity="1" stop-color="rgb(8.691406%, 71.868896%, 39.599609%)" offset="0.328125"/><stop stop-opacity="1" stop-color="rgb(8.570862%, 71.411133%, 39.556885%)" offset="0.332031"/><stop stop-opacity="1" stop-color="rgb(8.451843%, 70.954895%, 39.51416%)" offset="0.335938"/><stop stop-opacity="1" stop-color="rgb(8.331299%, 70.497131%, 39.46991%)" offset="0.339844"/><stop stop-opacity="1" stop-color="rgb(8.210754%, 70.040894%, 39.427185%)" offset="0.34375"/><stop stop-opacity="1" stop-color="rgb(8.09021%, 69.58313%, 39.382935%)" offset="0.347656"/><stop stop-opacity="1" stop-color="rgb(7.969666%, 69.125366%, 39.34021%)" offset="0.351563"/><stop stop-opacity="1" stop-color="rgb(7.849121%, 68.667603%, 39.295959%)" offset="0.355469"/><stop stop-opacity="1" stop-color="rgb(7.730103%, 68.211365%, 39.253235%)" offset="0.359375"/><stop stop-opacity="1" stop-color="rgb(7.609558%, 67.753601%, 39.21051%)" offset="0.363281"/><stop stop-opacity="1" stop-color="rgb(7.489014%, 67.297363%, 39.167786%)" offset="0.367188"/><stop stop-opacity="1" stop-color="rgb(7.368469%, 66.8396%, 39.123535%)" offset="0.371094"/><stop stop-opacity="1" stop-color="rgb(7.249451%, 66.383362%, 39.080811%)" offset="0.375"/><stop stop-opacity="1" stop-color="rgb(7.128906%, 65.925598%, 39.03656%)" offset="0.378906"/><stop stop-opacity="1" stop-color="rgb(7.008362%, 65.467834%, 38.993835%)" offset="0.382813"/><stop stop-opacity="1" stop-color="rgb(6.887817%, 65.010071%, 38.949585%)" offset="0.386719"/><stop stop-opacity="1" stop-color="rgb(6.767273%, 64.553833%, 38.90686%)" offset="0.390625"/><stop stop-opacity="1" stop-color="rgb(6.646729%, 64.096069%, 38.864136%)" offset="0.394531"/><stop stop-opacity="1" stop-color="rgb(6.52771%, 63.639832%, 38.821411%)" offset="0.398438"/><stop stop-opacity="1" stop-color="rgb(6.407166%, 63.182068%, 38.777161%)" offset="0.402344"/><stop stop-opacity="1" stop-color="rgb(6.286621%, 62.72583%, 38.734436%)" offset="0.40625"/><stop stop-opacity="1" stop-color="rgb(6.166077%, 62.268066%, 38.690186%)" offset="0.410156"/><stop stop-opacity="1" stop-color="rgb(6.047058%, 61.810303%, 38.647461%)" offset="0.414063"/><stop stop-opacity="1" stop-color="rgb(5.926514%, 61.352539%, 38.60321%)" offset="0.417969"/><stop stop-opacity="1" stop-color="rgb(5.805969%, 60.896301%, 38.560486%)" offset="0.421875"/><stop stop-opacity="1" stop-color="rgb(5.685425%, 60.438538%, 38.516235%)" offset="0.425781"/><stop stop-opacity="1" stop-color="rgb(5.56488%, 59.9823%, 38.473511%)" offset="0.429688"/><stop stop-opacity="1" stop-color="rgb(5.444336%, 59.524536%, 38.430786%)" offset="0.433594"/><stop stop-opacity="1" stop-color="rgb(5.325317%, 59.068298%, 38.388062%)" offset="0.4375"/><stop stop-opacity="1" stop-color="rgb(5.204773%, 58.610535%, 38.343811%)" offset="0.441406"/><stop stop-opacity="1" stop-color="rgb(5.084229%, 58.154297%, 38.301086%)" offset="0.445313"/><stop stop-opacity="1" stop-color="rgb(4.963684%, 57.696533%, 38.256836%)" offset="0.449219"/><stop stop-opacity="1" stop-color="rgb(4.844666%, 57.23877%, 38.214111%)" offset="0.453125"/><stop stop-opacity="1" stop-color="rgb(4.724121%, 56.781006%, 38.169861%)" offset="0.457031"/><stop stop-opacity="1" stop-color="rgb(4.603577%, 56.324768%, 38.127136%)" offset="0.460938"/><stop stop-opacity="1" stop-color="rgb(4.483032%, 55.867004%, 38.084412%)" offset="0.464844"/><stop stop-opacity="1" stop-color="rgb(4.362488%, 55.410767%, 38.041687%)" offset="0.46875"/><stop stop-opacity="1" stop-color="rgb(4.241943%, 54.953003%, 37.997437%)" offset="0.472656"/><stop stop-opacity="1" stop-color="rgb(4.122925%, 54.496765%, 37.954712%)" offset="0.476563"/><stop stop-opacity="1" stop-color="rgb(4.00238%, 54.039001%, 37.910461%)" offset="0.480469"/><stop stop-opacity="1" stop-color="rgb(3.881836%, 53.581238%, 37.867737%)" offset="0.484375"/><stop stop-opacity="1" stop-color="rgb(3.761292%, 53.123474%, 37.823486%)" offset="0.488281"/><stop stop-opacity="1" stop-color="rgb(3.642273%, 52.667236%, 37.780762%)" offset="0.492188"/><stop stop-opacity="1" stop-color="rgb(3.521729%, 52.209473%, 37.738037%)" offset="0.496094"/><stop stop-opacity="1" stop-color="rgb(3.401184%, 51.753235%, 37.695312%)" offset="0.5"/><stop stop-opacity="1" stop-color="rgb(3.28064%, 51.295471%, 37.651062%)" offset="0.503906"/><stop stop-opacity="1" stop-color="rgb(3.160095%, 50.839233%, 37.608337%)" offset="0.507812"/><stop stop-opacity="1" stop-color="rgb(3.039551%, 50.38147%, 37.564087%)" offset="0.511719"/><stop stop-opacity="1" stop-color="rgb(2.920532%, 49.923706%, 37.521362%)" offset="0.515625"/><stop stop-opacity="1" stop-color="rgb(2.799988%, 49.465942%, 37.477112%)" offset="0.519531"/><stop stop-opacity="1" stop-color="rgb(2.679443%, 49.009705%, 37.434387%)" offset="0.523438"/><stop stop-opacity="1" stop-color="rgb(2.558899%, 48.551941%, 37.390137%)" offset="0.527344"/><stop stop-opacity="1" stop-color="rgb(2.438354%, 48.095703%, 37.347412%)" offset="0.53125"/><stop stop-opacity="1" stop-color="rgb(2.31781%, 47.637939%, 37.304688%)" offset="0.535156"/><stop stop-opacity="1" stop-color="rgb(2.198792%, 47.181702%, 37.261963%)" offset="0.539062"/><stop stop-opacity="1" stop-color="rgb(2.078247%, 46.723938%, 37.217712%)" offset="0.542969"/><stop stop-opacity="1" stop-color="rgb(1.957703%, 46.2677%, 37.174988%)" offset="0.546875"/><stop stop-opacity="1" stop-color="rgb(1.837158%, 45.809937%, 37.130737%)" offset="0.550781"/><stop stop-opacity="1" stop-color="rgb(1.71814%, 45.352173%, 37.088013%)" offset="0.554688"/><stop stop-opacity="1" stop-color="rgb(1.597595%, 44.894409%, 37.043762%)" offset="0.558594"/><stop stop-opacity="1" stop-color="rgb(1.477051%, 44.438171%, 37.001038%)" offset="0.5625"/><stop stop-opacity="1" stop-color="rgb(1.356506%, 43.980408%, 36.958313%)" offset="0.566406"/><stop stop-opacity="1" stop-color="rgb(1.235962%, 43.52417%, 36.915588%)" offset="0.570312"/><stop stop-opacity="1" stop-color="rgb(1.115417%, 43.066406%, 36.871338%)" offset="0.574219"/><stop stop-opacity="1" stop-color="rgb(0.996399%, 42.610168%, 36.828613%)" offset="0.578125"/><stop stop-opacity="1" stop-color="rgb(0.875854%, 42.152405%, 36.784363%)" offset="0.582031"/><stop stop-opacity="1" stop-color="rgb(0.75531%, 41.694641%, 36.741638%)" offset="0.585938"/><stop stop-opacity="1" stop-color="rgb(0.634766%, 41.236877%, 36.697388%)" offset="0.589844"/><stop stop-opacity="1" stop-color="rgb(0.515747%, 40.78064%, 36.654663%)" offset="0.59375"/><stop stop-opacity="1" stop-color="rgb(0.395203%, 40.322876%, 36.611938%)" offset="0.597656"/><stop stop-opacity="1" stop-color="rgb(0.274658%, 39.866638%, 36.569214%)" offset="0.601562"/><stop stop-opacity="1" stop-color="rgb(0.154114%, 39.408875%, 36.524963%)" offset="0.605469"/><stop stop-opacity="1" stop-color="rgb(0.0335693%, 38.952637%, 36.482239%)" offset="0.609375"/><stop stop-opacity="1" stop-color="rgb(0.0167847%, 38.885498%, 36.474609%)" offset="0.625"/><stop stop-opacity="1" stop-color="rgb(0%, 38.819885%, 36.468506%)" offset="0.75"/><stop stop-opacity="1" stop-color="rgb(0%, 38.819885%, 36.468506%)" offset="1"/></linearGradient><clipPath id="58c57a73e4"><rect x="0" width="1440" y="0" height="810"/></clipPath><clipPath id="a8120a4756"><rect x="0" width="1440" y="0" height="810"/></clipPath><clipPath id="53d6cb7e17"><rect x="0" width="1440" y="0" height="810"/></clipPath><mask id="07253b2578"><g filter="url(#4e7ce80f5c)"><g transform="matrix(1, 0, 0, 1, 0, 0.000000000000039746)"><g clip-path="url(#53d6cb7e17)"><g transform="matrix(1, 0, 0, 1, 0, 0.000000000000039746)"><g clip-path="url(#a8120a4756)"><g fill="#000000" fill-opacity="1"><g transform="translate(27.31748, 443.66018)"><g><path d="M 128 -26.40625 C 130.125 -21.289062 131.1875 -17.597656 131.1875 -15.328125 C 131.1875 -9.929688 126.785156 -5.390625 117.984375 -1.703125 C 113.441406 0.285156 109.785156 1.28125 107.015625 1.28125 C 104.242188 1.28125 101.972656 0.609375 100.203125 -0.734375 C 98.429688 -2.085938 97.117188 -3.472656 96.265625 -4.890625 C 94.835938 -7.585938 89.300781 -20.441406 79.65625 -43.453125 L 73.046875 -43.015625 L 46.21875 -43.015625 L 46.21875 -18.953125 C 46.21875 -15.691406 46.109375 -13.242188 45.890625 -11.609375 C 45.679688 -9.972656 45.007812 -8.09375 43.875 -5.96875 C 41.882812 -2.132812 36.347656 -0.21875 27.265625 -0.21875 C 17.328125 -0.21875 11.503906 -2.84375 9.796875 -8.09375 C 8.941406 -10.507812 8.515625 -14.203125 8.515625 -19.171875 L 8.515625 -137.359375 C 8.515625 -140.628906 8.617188 -143.078125 8.828125 -144.703125 C 9.046875 -146.335938 9.722656 -148.222656 10.859375 -150.359375 C 12.847656 -154.191406 18.382812 -156.109375 27.46875 -156.109375 L 73.46875 -156.109375 C 85.96875 -156.109375 98.109375 -151.5625 109.890625 -142.46875 C 115.566406 -138.070312 120.25 -132.109375 123.9375 -124.578125 C 127.632812 -117.054688 129.484375 -108.679688 129.484375 -99.453125 C 129.484375 -83.410156 124.160156 -70.207031 113.515625 -59.84375 C 116.640625 -52.320312 121.46875 -41.175781 128 -26.40625 Z M 46.21875 -80.71875 L 73.46875 -80.71875 C 77.59375 -80.71875 81.710938 -82.273438 85.828125 -85.390625 C 89.941406 -88.515625 92 -93.203125 92 -99.453125 C 92 -105.703125 89.941406 -110.421875 85.828125 -113.609375 C 81.710938 -116.804688 77.453125 -118.40625 73.046875 -118.40625 L 46.21875 -118.40625 Z M 46.21875 -80.71875 "/></g></g></g><g fill="#000000" fill-opacity="1"><g transform="translate(237.939212, 443.66018)"><g><path d="M 46.21875 -37.703125 L 111.8125 -37.703125 C 115.070312 -37.703125 117.519531 -37.59375 119.15625 -37.375 C 120.789062 -37.164062 122.671875 -36.492188 124.796875 -35.359375 C 128.628906 -33.367188 130.546875 -27.828125 130.546875 -18.734375 C 130.546875 -8.796875 127.921875 -2.976562 122.671875 -1.28125 C 120.253906 -0.425781 116.5625 0 111.59375 0 L 27.265625 0 C 17.328125 0 11.503906 -2.695312 9.796875 -8.09375 C 8.941406 -10.363281 8.515625 -13.984375 8.515625 -18.953125 L 8.515625 -137.359375 C 8.515625 -144.597656 9.863281 -149.53125 12.5625 -152.15625 C 15.257812 -154.789062 20.375 -156.109375 27.90625 -156.109375 L 111.8125 -156.109375 C 115.070312 -156.109375 117.519531 -156 119.15625 -155.78125 C 120.789062 -155.570312 122.671875 -154.898438 124.796875 -153.765625 C 128.628906 -151.773438 130.546875 -146.238281 130.546875 -137.15625 C 130.546875 -127.21875 127.921875 -121.394531 122.671875 -119.6875 C 120.253906 -118.832031 116.5625 -118.40625 111.59375 -118.40625 L 46.21875 -118.40625 L 46.21875 -96.90625 L 88.375 -96.90625 C 91.644531 -96.90625 94.09375 -96.796875 95.71875 -96.578125 C 97.351562 -96.367188 99.238281 -95.695312 101.375 -94.5625 C 105.207031 -92.570312 107.125 -87.035156 107.125 -77.953125 C 107.125 -68.003906 104.425781 -62.179688 99.03125 -60.484375 C 96.613281 -59.628906 92.921875 -59.203125 87.953125 -59.203125 L 46.21875 -59.203125 Z M 46.21875 -37.703125 "/></g></g></g><g fill="#000000" fill-opacity="1"><g transform="translate(450.051665, 443.66018)"><g><path d="M 89.875 -94.125 L 127.359375 -94.125 C 135.023438 -93.84375 139.707031 -91.859375 141.40625 -88.171875 C 142.832031 -85.472656 143.546875 -81.5 143.546875 -76.25 L 143.546875 -29.390625 C 143.546875 -24.847656 141.554688 -20.519531 137.578125 -16.40625 C 125.648438 -4.050781 107.757812 2.125 83.90625 2.125 C 62.75 2.125 44.363281 -5.859375 28.75 -21.828125 C 13.132812 -37.796875 5.328125 -57.066406 5.328125 -79.640625 C 5.328125 -102.222656 13.273438 -121.070312 29.171875 -136.1875 C 45.078125 -151.3125 63.820312 -158.875 85.40625 -158.875 C 102.15625 -158.875 117.984375 -153.335938 132.890625 -142.265625 C 136.722656 -139.421875 138.640625 -136.257812 138.640625 -132.78125 C 138.640625 -129.300781 137.007812 -125.289062 133.75 -120.75 C 128.207031 -113.226562 123.164062 -109.46875 118.625 -109.46875 C 115.925781 -109.46875 111.59375 -111.414062 105.625 -115.3125 C 99.664062 -119.21875 92.566406 -121.171875 84.328125 -121.171875 C 73.546875 -121.171875 63.960938 -117.375 55.578125 -109.78125 C 47.203125 -102.1875 43.015625 -92.25 43.015625 -79.96875 C 43.015625 -67.6875 47.273438 -57.25 55.796875 -48.65625 C 64.316406 -40.070312 73.972656 -35.78125 84.765625 -35.78125 C 92.566406 -35.78125 99.59375 -37.054688 105.84375 -39.609375 L 105.84375 -62.828125 L 89.015625 -62.828125 C 84.617188 -62.828125 81.492188 -63.394531 79.640625 -64.53125 C 77.796875 -65.664062 76.585938 -67.332031 76.015625 -69.53125 C 75.453125 -71.726562 75.171875 -74.707031 75.171875 -78.46875 C 75.171875 -82.238281 75.488281 -85.257812 76.125 -87.53125 C 76.769531 -89.800781 77.945312 -91.363281 79.65625 -92.21875 C 82.207031 -93.488281 85.613281 -94.125 89.875 -94.125 Z M 89.875 -94.125 "/></g></g></g><g fill="#000000" fill-opacity="1"><g transform="translate(678.348813, 443.66018)"><g><path d="M 98.609375 -145.03125 L 156.109375 -26.1875 C 158.523438 -21.363281 159.734375 -17.742188 159.734375 -15.328125 C 159.734375 -10.222656 155.613281 -5.609375 147.375 -1.484375 C 142.550781 0.921875 138.753906 2.125 135.984375 2.125 C 133.210938 2.125 130.9375 1.484375 129.15625 0.203125 C 127.382812 -1.066406 126.109375 -2.410156 125.328125 -3.828125 C 124.546875 -5.253906 123.445312 -7.382812 122.03125 -10.21875 L 110.953125 -33.21875 L 51.96875 -33.21875 L 40.890625 -10.21875 C 39.472656 -7.382812 38.375 -5.328125 37.59375 -4.046875 C 36.8125 -2.765625 35.53125 -1.445312 33.75 -0.09375 C 31.976562 1.25 29.707031 1.921875 26.9375 1.921875 C 24.164062 1.921875 20.367188 0.710938 15.546875 -1.703125 C 7.304688 -5.679688 3.1875 -10.222656 3.1875 -15.328125 C 3.1875 -17.742188 4.394531 -21.363281 6.8125 -26.1875 L 64.3125 -145.25 C 65.875 -148.507812 68.253906 -151.132812 71.453125 -153.125 C 74.648438 -155.113281 78.019531 -156.109375 81.5625 -156.109375 C 89.226562 -156.109375 94.910156 -152.414062 98.609375 -145.03125 Z M 81.359375 -93.921875 L 67.296875 -64.75 L 95.625 -64.75 Z M 81.359375 -93.921875 "/></g></g></g><g fill="#000000" fill-opacity="1"><g transform="translate(917.506836, 443.66018)"><g><path d="M 46.21875 -31.515625 L 104.140625 -31.515625 C 108.828125 -31.515625 112.234375 -30.984375 114.359375 -29.921875 C 116.492188 -28.859375 117.914062 -27.191406 118.625 -24.921875 C 119.332031 -22.648438 119.6875 -19.628906 119.6875 -15.859375 C 119.6875 -12.097656 119.332031 -9.082031 118.625 -6.8125 C 117.914062 -4.539062 116.707031 -2.976562 115 -2.125 C 112.300781 -0.707031 108.609375 0 103.921875 0 L 27.265625 0 C 17.328125 0 11.503906 -2.695312 9.796875 -8.09375 C 8.941406 -10.363281 8.515625 -13.984375 8.515625 -18.953125 L 8.515625 -137.359375 C 8.515625 -140.628906 8.617188 -143.078125 8.828125 -144.703125 C 9.046875 -146.335938 9.722656 -148.222656 10.859375 -150.359375 C 12.847656 -154.191406 18.382812 -156.109375 27.46875 -156.109375 C 37.40625 -156.109375 43.300781 -153.476562 45.15625 -148.21875 C 45.863281 -145.8125 46.21875 -142.125 46.21875 -137.15625 Z M 46.21875 -31.515625 "/></g></g></g><g fill="#000000" fill-opacity="1"><g transform="translate(1118.758466, 443.66018)"><g><path d="M 8.515625 -137.359375 C 8.515625 -140.628906 8.617188 -143.078125 8.828125 -144.703125 C 9.046875 -146.335938 9.722656 -148.222656 10.859375 -150.359375 C 12.847656 -154.191406 18.382812 -156.109375 27.46875 -156.109375 C 37.40625 -156.109375 43.300781 -153.476562 45.15625 -148.21875 C 45.863281 -145.8125 46.21875 -142.125 46.21875 -137.15625 L 46.21875 -18.734375 C 46.21875 -15.328125 46.109375 -12.84375 45.890625 -11.28125 C 45.679688 -9.71875 45.007812 -7.875 43.875 -5.75 C 41.882812 -1.914062 36.347656 0 27.265625 0 C 17.328125 0 11.503906 -2.695312 9.796875 -8.09375 C 8.941406 -10.363281 8.515625 -13.984375 8.515625 -18.953125 Z M 8.515625 -137.359375 "/></g></g></g><g fill="#000000" fill-opacity="1"><g transform="translate(1249.734163, 443.66018)"><g><path d="M 98.609375 -145.03125 L 156.109375 -26.1875 C 158.523438 -21.363281 159.734375 -17.742188 159.734375 -15.328125 C 159.734375 -10.222656 155.613281 -5.609375 147.375 -1.484375 C 142.550781 0.921875 138.753906 2.125 135.984375 2.125 C 133.210938 2.125 130.9375 1.484375 129.15625 0.203125 C 127.382812 -1.066406 126.109375 -2.410156 125.328125 -3.828125 C 124.546875 -5.253906 123.445312 -7.382812 122.03125 -10.21875 L 110.953125 -33.21875 L 51.96875 -33.21875 L 40.890625 -10.21875 C 39.472656 -7.382812 38.375 -5.328125 37.59375 -4.046875 C 36.8125 -2.765625 35.53125 -1.445312 33.75 -0.09375 C 31.976562 1.25 29.707031 1.921875 26.9375 1.921875 C 24.164062 1.921875 20.367188 0.710938 15.546875 -1.703125 C 7.304688 -5.679688 3.1875 -10.222656 3.1875 -15.328125 C 3.1875 -17.742188 4.394531 -21.363281 6.8125 -26.1875 L 64.3125 -145.25 C 65.875 -148.507812 68.253906 -151.132812 71.453125 -153.125 C 74.648438 -155.113281 78.019531 -156.109375 81.5625 -156.109375 C 89.226562 -156.109375 94.910156 -152.414062 98.609375 -145.03125 Z M 81.359375 -93.921875 L 67.296875 -64.75 L 95.625 -64.75 Z M 81.359375 -93.921875 "/></g></g></g></g></g></g></g></g></mask><clipPath id="1990cba75b"><path d="M 0 0 L 1440 0 L 1440 810 L 0 810 Z M 0 0 " clip-rule="nonzero"/></clipPath><clipPath id="9df72ca657"><rect x="0" width="1440" y="0" height="810"/></clipPath><clipPath id="e8c04de3ef"><rect x="0" width="1440" y="0" height="810"/></clipPath><clipPath id="5f1cfbd443"><rect x="0" width="1440" y="0" height="810"/></clipPath><clipPath id="b6d28df4af"><path d="M 0 2.03125 L 1440 2.03125 L 1440 461.058594 L 0 461.058594 Z M 0 2.03125 " clip-rule="nonzero"/></clipPath><clipPath id="ba19ce3127"><path d="M 0 0.03125 L 1440 0.03125 L 1440 459.058594 L 0 459.058594 Z M 0 0.03125 " clip-rule="nonzero"/></clipPath><clipPath id="e333453a73"><path d="M 0 7.703125 L 1440 7.703125 L 1440 452.664062 L 0 452.664062 Z M 0 7.703125 " clip-rule="nonzero"/></clipPath><linearGradient x1="571.56299" gradientTransform="matrix(1.279031, 0, 0, 1.279844, -4.403482, 170.670396)" y1="-127.332991" x2="571.56299" gradientUnits="userSpaceOnUse" y2="220.33399" id="0e07fec2a0"><stop stop-opacity="1" stop-color="rgb(9.799194%, 76.078796%, 39.99939%)" offset="0"/><stop stop-opacity="1" stop-color="rgb(9.799194%, 76.078796%, 39.99939%)" offset="0.25"/><stop stop-opacity="1" stop-color="rgb(9.799194%, 76.078796%, 39.99939%)" offset="0.375"/><stop stop-opacity="1" stop-color="rgb(9.799194%, 76.078796%, 39.99939%)" offset="0.382813"/><stop stop-opacity="1" stop-color="rgb(9.967041%, 75.665283%, 40.112305%)" offset="0.386719"/><stop stop-opacity="1" stop-color="rgb(10.134888%, 75.253296%, 40.226746%)" offset="0.390625"/><stop stop-opacity="1" stop-color="rgb(10.317993%, 74.798584%, 40.351868%)" offset="0.394531"/><stop stop-opacity="1" stop-color="rgb(10.502625%, 74.345398%, 40.47699%)" offset="0.398438"/><stop stop-opacity="1" stop-color="rgb(10.68573%, 73.890686%, 40.600586%)" offset="0.402344"/><stop stop-opacity="1" stop-color="rgb(10.870361%, 73.4375%, 40.725708%)" offset="0.40625"/><stop stop-opacity="1" stop-color="rgb(11.054993%, 72.984314%, 40.85083%)" offset="0.410156"/><stop stop-opacity="1" stop-color="rgb(11.239624%, 72.531128%, 40.975952%)" offset="0.414063"/><stop stop-opacity="1" stop-color="rgb(11.422729%, 72.076416%, 41.101074%)" offset="0.417969"/><stop stop-opacity="1" stop-color="rgb(11.607361%, 71.62323%, 41.226196%)" offset="0.421875"/><stop stop-opacity="1" stop-color="rgb(11.790466%, 71.168518%, 41.351318%)" offset="0.425781"/><stop stop-opacity="1" stop-color="rgb(11.975098%, 70.715332%, 41.47644%)" offset="0.429688"/><stop stop-opacity="1" stop-color="rgb(12.159729%, 70.262146%, 41.600037%)" offset="0.433594"/><stop stop-opacity="1" stop-color="rgb(12.34436%, 69.80896%, 41.725159%)" offset="0.4375"/><stop stop-opacity="1" stop-color="rgb(12.527466%, 69.354248%, 41.850281%)" offset="0.441406"/><stop stop-opacity="1" stop-color="rgb(12.712097%, 68.901062%, 41.975403%)" offset="0.445313"/><stop stop-opacity="1" stop-color="rgb(12.895203%, 68.44635%, 42.100525%)" offset="0.449219"/><stop stop-opacity="1" stop-color="rgb(13.079834%, 67.993164%, 42.225647%)" offset="0.453125"/><stop stop-opacity="1" stop-color="rgb(13.264465%, 67.539978%, 42.350769%)" offset="0.457031"/><stop stop-opacity="1" stop-color="rgb(13.449097%, 67.086792%, 42.475891%)" offset="0.460938"/><stop stop-opacity="1" stop-color="rgb(13.632202%, 66.63208%, 42.599487%)" offset="0.464844"/><stop stop-opacity="1" stop-color="rgb(13.816833%, 66.178894%, 42.724609%)" offset="0.46875"/><stop stop-opacity="1" stop-color="rgb(13.999939%, 65.724182%, 42.849731%)" offset="0.472656"/><stop stop-opacity="1" stop-color="rgb(14.18457%, 65.270996%, 42.974854%)" offset="0.476563"/><stop stop-opacity="1" stop-color="rgb(14.367676%, 64.816284%, 43.099976%)" offset="0.480469"/><stop stop-opacity="1" stop-color="rgb(14.552307%, 64.363098%, 43.225098%)" offset="0.484375"/><stop stop-opacity="1" stop-color="rgb(14.736938%, 63.909912%, 43.348694%)" offset="0.488281"/><stop stop-opacity="1" stop-color="rgb(14.92157%, 63.456726%, 43.473816%)" offset="0.492188"/><stop stop-opacity="1" stop-color="rgb(15.104675%, 63.002014%, 43.598938%)" offset="0.496094"/><stop stop-opacity="1" stop-color="rgb(15.289307%, 62.548828%, 43.72406%)" offset="0.5"/><stop stop-opacity="1" stop-color="rgb(15.472412%, 62.094116%, 43.849182%)" offset="0.503906"/><stop stop-opacity="1" stop-color="rgb(15.657043%, 61.64093%, 43.974304%)" offset="0.507813"/><stop stop-opacity="1" stop-color="rgb(15.841675%, 61.187744%, 44.099426%)" offset="0.511719"/><stop stop-opacity="1" stop-color="rgb(16.026306%, 60.734558%, 44.224548%)" offset="0.515625"/><stop stop-opacity="1" stop-color="rgb(16.209412%, 60.279846%, 44.348145%)" offset="0.519531"/><stop stop-opacity="1" stop-color="rgb(16.394043%, 59.82666%, 44.473267%)" offset="0.523438"/><stop stop-opacity="1" stop-color="rgb(16.577148%, 59.371948%, 44.598389%)" offset="0.527344"/><stop stop-opacity="1" stop-color="rgb(16.76178%, 58.918762%, 44.723511%)" offset="0.53125"/><stop stop-opacity="1" stop-color="rgb(16.944885%, 58.465576%, 44.848633%)" offset="0.535156"/><stop stop-opacity="1" stop-color="rgb(17.129517%, 58.01239%, 44.973755%)" offset="0.539063"/><stop stop-opacity="1" stop-color="rgb(17.314148%, 57.557678%, 45.097351%)" offset="0.542969"/><stop stop-opacity="1" stop-color="rgb(17.498779%, 57.104492%, 45.222473%)" offset="0.546875"/><stop stop-opacity="1" stop-color="rgb(17.681885%, 56.64978%, 45.347595%)" offset="0.550781"/><stop stop-opacity="1" stop-color="rgb(17.866516%, 56.196594%, 45.472717%)" offset="0.554688"/><stop stop-opacity="1" stop-color="rgb(18.049622%, 55.743408%, 45.597839%)" offset="0.558594"/><stop stop-opacity="1" stop-color="rgb(18.234253%, 55.290222%, 45.722961%)" offset="0.5625"/><stop stop-opacity="1" stop-color="rgb(18.418884%, 54.83551%, 45.848083%)" offset="0.566406"/><stop stop-opacity="1" stop-color="rgb(18.603516%, 54.382324%, 45.973206%)" offset="0.570312"/><stop stop-opacity="1" stop-color="rgb(18.786621%, 53.927612%, 46.096802%)" offset="0.574219"/><stop stop-opacity="1" stop-color="rgb(18.971252%, 53.474426%, 46.221924%)" offset="0.578125"/><stop stop-opacity="1" stop-color="rgb(19.154358%, 53.02124%, 46.347046%)" offset="0.582031"/><stop stop-opacity="1" stop-color="rgb(19.338989%, 52.568054%, 46.472168%)" offset="0.585938"/><stop stop-opacity="1" stop-color="rgb(19.523621%, 52.113342%, 46.59729%)" offset="0.589844"/><stop stop-opacity="1" stop-color="rgb(19.708252%, 51.660156%, 46.722412%)" offset="0.59375"/><stop stop-opacity="1" stop-color="rgb(19.891357%, 51.205444%, 46.847534%)" offset="0.597656"/><stop stop-opacity="1" stop-color="rgb(20.075989%, 50.752258%, 46.972656%)" offset="0.601563"/><stop stop-opacity="1" stop-color="rgb(20.259094%, 50.299072%, 47.096252%)" offset="0.605469"/><stop stop-opacity="1" stop-color="rgb(20.443726%, 49.845886%, 47.221375%)" offset="0.609375"/><stop stop-opacity="1" stop-color="rgb(20.611572%, 49.432373%, 47.33429%)" offset="0.613281"/><stop stop-opacity="1" stop-color="rgb(20.779419%, 49.01886%, 47.44873%)" offset="0.617188"/><stop stop-opacity="1" stop-color="rgb(20.779419%, 49.01886%, 47.44873%)" offset="0.625"/><stop stop-opacity="1" stop-color="rgb(20.779419%, 49.01886%, 47.44873%)" offset="0.75"/><stop stop-opacity="1" stop-color="rgb(20.779419%, 49.01886%, 47.44873%)" offset="1"/></linearGradient><clipPath id="2388f98470"><rect x="0" width="1440" y="0" height="460"/></clipPath><clipPath id="e9d17abab3"><path d="M 0 0.03125 L 1440 0.03125 L 1440 459.058594 L 0 459.058594 Z M 0 0.03125 " clip-rule="nonzero"/></clipPath><clipPath id="ecc35d8afc"><rect x="0" width="1440" y="0" height="460"/></clipPath><clipPath id="791faa5327"><rect x="0" width="1440" y="0" height="460"/></clipPath><mask id="26e4024f40"><g filter="url(#4e7ce80f5c)"><g transform="matrix(1, 0, 0, 1, 0, 0.000000000000056843)"><g clip-path="url(#791faa5327)"><g clip-path="url(#e9d17abab3)"><g transform="matrix(1, 0, 0, 1, 0, 0.000000000000056843)"><g clip-path="url(#ecc35d8afc)"><g fill="#000000" fill-opacity="1"><g transform="translate(47.856242, 260.870653)"><g><path d="M 44.75 -62.484375 C 46.050781 -62.484375 47.03125 -62.4375 47.6875 -62.34375 C 48.34375 -62.257812 49.082031 -61.988281 49.90625 -61.53125 C 50.726562 -61.082031 51.304688 -60.316406 51.640625 -59.234375 C 51.984375 -58.160156 52.15625 -56.710938 52.15625 -54.890625 C 52.15625 -53.066406 51.984375 -51.613281 51.640625 -50.53125 C 51.304688 -49.457031 50.710938 -48.707031 49.859375 -48.28125 C 49.003906 -47.851562 48.25 -47.597656 47.59375 -47.515625 C 46.945312 -47.429688 45.941406 -47.390625 44.578125 -47.390625 L 18.5 -47.390625 L 18.5 -38.78125 L 35.28125 -38.78125 C 36.644531 -38.78125 37.65625 -38.738281 38.3125 -38.65625 C 38.96875 -38.570312 39.722656 -38.300781 40.578125 -37.84375 C 42.046875 -36.988281 42.78125 -34.742188 42.78125 -31.109375 C 42.78125 -27.128906 41.703125 -24.769531 39.546875 -24.03125 C 38.640625 -23.75 37.191406 -23.609375 35.203125 -23.609375 L 18.5 -23.609375 L 18.5 -7.5 C 18.5 -6.132812 18.453125 -5.140625 18.359375 -4.515625 C 18.273438 -3.890625 18.007812 -3.148438 17.5625 -2.296875 C 16.757812 -0.765625 14.539062 0 10.90625 0 C 6.925781 0 4.597656 -1.078125 3.921875 -3.234375 C 3.578125 -4.148438 3.40625 -5.597656 3.40625 -7.578125 L 3.40625 -54.96875 C 3.40625 -57.875 3.941406 -59.851562 5.015625 -60.90625 C 6.097656 -61.957031 8.148438 -62.484375 11.171875 -62.484375 Z M 44.75 -62.484375 "/></g></g></g><g fill="#000000" fill-opacity="1"><g transform="translate(115.614658, 260.870653)"><g><path d="M 39.46875 -58.046875 L 62.484375 -10.484375 C 63.441406 -8.546875 63.921875 -7.097656 63.921875 -6.140625 C 63.921875 -4.085938 62.273438 -2.238281 58.984375 -0.59375 C 57.046875 0.375 55.523438 0.859375 54.421875 0.859375 C 53.316406 0.859375 52.40625 0.597656 51.6875 0.078125 C 50.976562 -0.429688 50.46875 -0.96875 50.15625 -1.53125 C 49.84375 -2.101562 49.40625 -2.957031 48.84375 -4.09375 L 44.40625 -13.296875 L 20.796875 -13.296875 L 16.359375 -4.09375 C 15.796875 -2.957031 15.359375 -2.132812 15.046875 -1.625 C 14.734375 -1.113281 14.21875 -0.585938 13.5 -0.046875 C 12.789062 0.492188 11.882812 0.765625 10.78125 0.765625 C 9.675781 0.765625 8.15625 0.28125 6.21875 -0.6875 C 2.925781 -2.269531 1.28125 -4.085938 1.28125 -6.140625 C 1.28125 -7.097656 1.765625 -8.546875 2.734375 -10.484375 L 25.734375 -58.125 C 26.359375 -59.4375 27.3125 -60.488281 28.59375 -61.28125 C 29.875 -62.082031 31.222656 -62.484375 32.640625 -62.484375 C 35.710938 -62.484375 37.988281 -61.003906 39.46875 -58.046875 Z M 32.5625 -37.59375 L 26.9375 -25.90625 L 38.265625 -25.90625 Z M 32.5625 -37.59375 "/></g></g></g><g fill="#000000" fill-opacity="1"><g transform="translate(194.282271, 260.870653)"><g><path d="M 51.21875 -10.5625 C 52.070312 -8.519531 52.5 -7.046875 52.5 -6.140625 C 52.5 -3.972656 50.738281 -2.15625 47.21875 -0.6875 C 45.40625 0.113281 43.941406 0.515625 42.828125 0.515625 C 41.722656 0.515625 40.8125 0.242188 40.09375 -0.296875 C 39.382812 -0.835938 38.863281 -1.390625 38.53125 -1.953125 C 37.957031 -3.035156 35.738281 -8.179688 31.875 -17.390625 L 29.234375 -17.21875 L 18.5 -17.21875 L 18.5 -7.578125 C 18.5 -6.273438 18.453125 -5.296875 18.359375 -4.640625 C 18.273438 -3.992188 18.007812 -3.242188 17.5625 -2.390625 C 16.757812 -0.847656 14.539062 -0.078125 10.90625 -0.078125 C 6.925781 -0.078125 4.597656 -1.128906 3.921875 -3.234375 C 3.578125 -4.203125 3.40625 -5.679688 3.40625 -7.671875 L 3.40625 -54.96875 C 3.40625 -56.28125 3.445312 -57.257812 3.53125 -57.90625 C 3.625 -58.5625 3.894531 -59.316406 4.34375 -60.171875 C 5.144531 -61.710938 7.363281 -62.484375 11 -62.484375 L 29.40625 -62.484375 C 34.40625 -62.484375 39.265625 -60.660156 43.984375 -57.015625 C 46.253906 -55.253906 48.128906 -52.867188 49.609375 -49.859375 C 51.085938 -46.847656 51.828125 -43.492188 51.828125 -39.796875 C 51.828125 -33.378906 49.695312 -28.097656 45.4375 -23.953125 C 46.6875 -20.941406 48.613281 -16.476562 51.21875 -10.5625 Z M 18.5 -32.296875 L 29.40625 -32.296875 C 31.050781 -32.296875 32.695312 -32.921875 34.34375 -34.171875 C 36 -35.421875 36.828125 -37.296875 36.828125 -39.796875 C 36.828125 -42.304688 36 -44.195312 34.34375 -45.46875 C 32.695312 -46.75 30.992188 -47.390625 29.234375 -47.390625 L 18.5 -47.390625 Z M 18.5 -32.296875 "/></g></g></g><g fill="#000000" fill-opacity="1"><g transform="translate(261.529306, 260.870653)"><g><path d="M 69.8125 -60.09375 C 70.257812 -59.238281 70.523438 -58.46875 70.609375 -57.78125 C 70.703125 -57.101562 70.75 -56.113281 70.75 -54.8125 L 70.75 -7.5 C 70.75 -3.582031 69.664062 -1.28125 67.5 -0.59375 C 66.425781 -0.25 65.0625 -0.078125 63.40625 -0.078125 C 61.757812 -0.078125 60.453125 -0.21875 59.484375 -0.5 C 58.523438 -0.789062 57.789062 -1.132812 57.28125 -1.53125 C 56.769531 -1.925781 56.367188 -2.492188 56.078125 -3.234375 C 55.796875 -4.203125 55.65625 -5.679688 55.65625 -7.671875 L 55.65625 -36.21875 C 54.238281 -34.457031 52.164062 -31.660156 49.4375 -27.828125 C 46.707031 -23.992188 44.972656 -21.59375 44.234375 -20.625 C 43.492188 -19.65625 42.984375 -18.984375 42.703125 -18.609375 C 42.421875 -18.242188 41.722656 -17.734375 40.609375 -17.078125 C 39.503906 -16.429688 38.3125 -16.109375 37.03125 -16.109375 C 35.75 -16.109375 34.582031 -16.40625 33.53125 -17 C 32.488281 -17.601562 31.738281 -18.1875 31.28125 -18.75 L 30.59375 -19.6875 C 29.457031 -21.101562 27.210938 -24.128906 23.859375 -28.765625 C 20.515625 -33.398438 18.695312 -35.882812 18.40625 -36.21875 L 18.40625 -7.5 C 18.40625 -6.195312 18.363281 -5.21875 18.28125 -4.5625 C 18.195312 -3.90625 17.925781 -3.179688 17.46875 -2.390625 C 16.613281 -0.847656 14.398438 -0.078125 10.828125 -0.078125 C 7.359375 -0.078125 5.195312 -0.847656 4.34375 -2.390625 C 3.894531 -3.179688 3.625 -3.914062 3.53125 -4.59375 C 3.445312 -5.28125 3.40625 -6.304688 3.40625 -7.671875 L 3.40625 -54.96875 C 3.40625 -56.28125 3.445312 -57.257812 3.53125 -57.90625 C 3.625 -58.5625 3.894531 -59.316406 4.34375 -60.171875 C 5.195312 -61.648438 7.414062 -62.390625 11 -62.390625 C 12.53125 -62.390625 13.847656 -62.203125 14.953125 -61.828125 C 16.066406 -61.460938 16.789062 -61.082031 17.125 -60.6875 L 17.640625 -60.171875 L 36.984375 -34.78125 C 46.648438 -47.5625 53.101562 -56 56.34375 -60.09375 C 57.300781 -61.625 59.582031 -62.390625 63.1875 -62.390625 C 66.800781 -62.390625 69.007812 -61.625 69.8125 -60.09375 Z M 69.8125 -60.09375 "/></g></g></g><g fill="#000000" fill-opacity="1"><g transform="translate(349.14587, 260.870653)"><g><path d="M 18.5 -15.09375 L 44.75 -15.09375 C 46.050781 -15.09375 47.03125 -15.046875 47.6875 -14.953125 C 48.34375 -14.867188 49.097656 -14.601562 49.953125 -14.15625 C 51.484375 -13.351562 52.25 -11.132812 52.25 -7.5 C 52.25 -3.519531 51.195312 -1.191406 49.09375 -0.515625 C 48.125 -0.171875 46.644531 0 44.65625 0 L 10.90625 0 C 6.925781 0 4.597656 -1.078125 3.921875 -3.234375 C 3.578125 -4.148438 3.40625 -5.597656 3.40625 -7.578125 L 3.40625 -54.96875 C 3.40625 -57.875 3.941406 -59.851562 5.015625 -60.90625 C 6.097656 -61.957031 8.148438 -62.484375 11.171875 -62.484375 L 44.75 -62.484375 C 46.050781 -62.484375 47.03125 -62.4375 47.6875 -62.34375 C 48.34375 -62.257812 49.097656 -61.992188 49.953125 -61.546875 C 51.484375 -60.742188 52.25 -58.523438 52.25 -54.890625 C 52.25 -50.910156 51.195312 -48.582031 49.09375 -47.90625 C 48.125 -47.5625 46.644531 -47.390625 44.65625 -47.390625 L 18.5 -47.390625 L 18.5 -38.78125 L 35.375 -38.78125 C 36.675781 -38.78125 37.65625 -38.738281 38.3125 -38.65625 C 38.96875 -38.570312 39.722656 -38.300781 40.578125 -37.84375 C 42.109375 -37.050781 42.875 -34.835938 42.875 -31.203125 C 42.875 -27.222656 41.796875 -24.890625 39.640625 -24.203125 C 38.671875 -23.859375 37.191406 -23.6875 35.203125 -23.6875 L 18.5 -23.6875 Z M 18.5 -15.09375 "/></g></g></g><g fill="#000000" fill-opacity="1"><g transform="translate(416.989527, 260.870653)"><g><path d="M 51.21875 -10.5625 C 52.070312 -8.519531 52.5 -7.046875 52.5 -6.140625 C 52.5 -3.972656 50.738281 -2.15625 47.21875 -0.6875 C 45.40625 0.113281 43.941406 0.515625 42.828125 0.515625 C 41.722656 0.515625 40.8125 0.242188 40.09375 -0.296875 C 39.382812 -0.835938 38.863281 -1.390625 38.53125 -1.953125 C 37.957031 -3.035156 35.738281 -8.179688 31.875 -17.390625 L 29.234375 -17.21875 L 18.5 -17.21875 L 18.5 -7.578125 C 18.5 -6.273438 18.453125 -5.296875 18.359375 -4.640625 C 18.273438 -3.992188 18.007812 -3.242188 17.5625 -2.390625 C 16.757812 -0.847656 14.539062 -0.078125 10.90625 -0.078125 C 6.925781 -0.078125 4.597656 -1.128906 3.921875 -3.234375 C 3.578125 -4.203125 3.40625 -5.679688 3.40625 -7.671875 L 3.40625 -54.96875 C 3.40625 -56.28125 3.445312 -57.257812 3.53125 -57.90625 C 3.625 -58.5625 3.894531 -59.316406 4.34375 -60.171875 C 5.144531 -61.710938 7.363281 -62.484375 11 -62.484375 L 29.40625 -62.484375 C 34.40625 -62.484375 39.265625 -60.660156 43.984375 -57.015625 C 46.253906 -55.253906 48.128906 -52.867188 49.609375 -49.859375 C 51.085938 -46.847656 51.828125 -43.492188 51.828125 -39.796875 C 51.828125 -33.378906 49.695312 -28.097656 45.4375 -23.953125 C 46.6875 -20.941406 48.613281 -16.476562 51.21875 -10.5625 Z M 18.5 -32.296875 L 29.40625 -32.296875 C 31.050781 -32.296875 32.695312 -32.921875 34.34375 -34.171875 C 36 -35.421875 36.828125 -37.296875 36.828125 -39.796875 C 36.828125 -42.304688 36 -44.195312 34.34375 -45.46875 C 32.695312 -46.75 30.992188 -47.390625 29.234375 -47.390625 L 18.5 -47.390625 Z M 18.5 -32.296875 "/></g></g></g><g fill="#000000" fill-opacity="1"><g transform="translate(484.236523, 260.870653)"><g><path d="M 16.625 -60.6875 C 17.582031 -59.71875 18.0625 -58.070312 18.0625 -55.75 L 18.0625 -54.375 C 18.0625 -52.957031 18.007812 -51.90625 17.90625 -51.21875 C 17.5 -46.21875 16.015625 -41.925781 13.453125 -38.34375 C 10.898438 -34.769531 7.664062 -32.984375 3.75 -32.984375 C 3.351562 -32.984375 3 -33.28125 2.6875 -33.875 C 2.375 -34.476562 2.21875 -35.257812 2.21875 -36.21875 C 2.21875 -37.1875 2.34375 -37.941406 2.59375 -38.484375 C 2.851562 -39.023438 3.140625 -39.335938 3.453125 -39.421875 C 3.765625 -39.503906 4.003906 -39.5625 4.171875 -39.59375 C 4.347656 -39.625 4.660156 -39.765625 5.109375 -40.015625 C 5.566406 -40.273438 5.96875 -40.628906 6.3125 -41.078125 C 7.21875 -42.273438 7.726562 -44.125 7.84375 -46.625 C 5.90625 -46.90625 4.46875 -47.53125 3.53125 -48.5 C 2.59375 -49.46875 2.125 -51.515625 2.125 -54.640625 C 2.125 -56.910156 2.40625 -58.597656 2.96875 -59.703125 C 3.539062 -60.816406 4.410156 -61.554688 5.578125 -61.921875 C 6.742188 -62.296875 8.546875 -62.484375 10.984375 -62.484375 C 13.429688 -62.484375 15.3125 -61.882812 16.625 -60.6875 Z M 16.625 -60.6875 "/></g></g></g><g fill="#000000" fill-opacity="1"><g transform="translate(517.903724, 260.870653)"><g><path d="M 4.34375 -8.78125 C 2.863281 -10.59375 2.125 -12.222656 2.125 -13.671875 C 2.125 -15.128906 3.347656 -17.050781 5.796875 -19.4375 C 7.210938 -20.800781 8.71875 -21.484375 10.3125 -21.484375 C 11.90625 -21.484375 14.125 -20.0625 16.96875 -17.21875 C 17.757812 -16.25 18.894531 -15.320312 20.375 -14.4375 C 21.851562 -13.5625 23.21875 -13.125 24.46875 -13.125 C 29.75 -13.125 32.390625 -15.285156 32.390625 -19.609375 C 32.390625 -20.910156 31.664062 -22 30.21875 -22.875 C 28.769531 -23.757812 26.960938 -24.398438 24.796875 -24.796875 C 22.640625 -25.203125 20.3125 -25.84375 17.8125 -26.71875 C 15.3125 -27.601562 12.976562 -28.640625 10.8125 -29.828125 C 8.65625 -31.023438 6.851562 -32.914062 5.40625 -35.5 C 3.957031 -38.082031 3.234375 -41.191406 3.234375 -44.828125 C 3.234375 -49.828125 5.09375 -54.1875 8.8125 -57.90625 C 12.539062 -61.632812 17.613281 -63.5 24.03125 -63.5 C 27.445312 -63.5 30.5625 -63.054688 33.375 -62.171875 C 36.1875 -61.296875 38.128906 -60.40625 39.203125 -59.5 L 41.34375 -57.875 C 43.101562 -56.226562 43.984375 -54.835938 43.984375 -53.703125 C 43.984375 -52.566406 43.300781 -51.003906 41.9375 -49.015625 C 40 -46.171875 38.007812 -44.75 35.96875 -44.75 C 34.769531 -44.75 33.289062 -45.316406 31.53125 -46.453125 C 31.363281 -46.566406 31.035156 -46.847656 30.546875 -47.296875 C 30.066406 -47.753906 29.628906 -48.125 29.234375 -48.40625 C 28.046875 -49.144531 26.523438 -49.515625 24.671875 -49.515625 C 22.828125 -49.515625 21.289062 -49.070312 20.0625 -48.1875 C 18.84375 -47.3125 18.234375 -46.09375 18.234375 -44.53125 C 18.234375 -42.96875 18.957031 -41.703125 20.40625 -40.734375 C 21.863281 -39.773438 23.671875 -39.125 25.828125 -38.78125 C 27.984375 -38.4375 30.335938 -37.910156 32.890625 -37.203125 C 35.453125 -36.492188 37.8125 -35.628906 39.96875 -34.609375 C 42.132812 -33.585938 43.941406 -31.8125 45.390625 -29.28125 C 46.835938 -26.75 47.5625 -23.632812 47.5625 -19.9375 C 47.5625 -16.25 46.820312 -13 45.34375 -10.1875 C 43.863281 -7.375 41.929688 -5.203125 39.546875 -3.671875 C 34.941406 -0.648438 30.023438 0.859375 24.796875 0.859375 C 22.128906 0.859375 19.601562 0.53125 17.21875 -0.125 C 14.832031 -0.78125 12.898438 -1.59375 11.421875 -2.5625 C 8.410156 -4.375 6.304688 -6.132812 5.109375 -7.84375 Z M 4.34375 -8.78125 "/></g></g></g><g fill="#000000" fill-opacity="1"><g transform="translate(581.059825, 260.870653)"><g/></g></g><g fill="#000000" fill-opacity="1"><g transform="translate(616.090632, 260.870653)"><g><path d="M 69.8125 -60.09375 C 70.257812 -59.238281 70.523438 -58.46875 70.609375 -57.78125 C 70.703125 -57.101562 70.75 -56.113281 70.75 -54.8125 L 70.75 -7.5 C 70.75 -3.582031 69.664062 -1.28125 67.5 -0.59375 C 66.425781 -0.25 65.0625 -0.078125 63.40625 -0.078125 C 61.757812 -0.078125 60.453125 -0.21875 59.484375 -0.5 C 58.523438 -0.789062 57.789062 -1.132812 57.28125 -1.53125 C 56.769531 -1.925781 56.367188 -2.492188 56.078125 -3.234375 C 55.796875 -4.203125 55.65625 -5.679688 55.65625 -7.671875 L 55.65625 -36.21875 C 54.238281 -34.457031 52.164062 -31.660156 49.4375 -27.828125 C 46.707031 -23.992188 44.972656 -21.59375 44.234375 -20.625 C 43.492188 -19.65625 42.984375 -18.984375 42.703125 -18.609375 C 42.421875 -18.242188 41.722656 -17.734375 40.609375 -17.078125 C 39.503906 -16.429688 38.3125 -16.109375 37.03125 -16.109375 C 35.75 -16.109375 34.582031 -16.40625 33.53125 -17 C 32.488281 -17.601562 31.738281 -18.1875 31.28125 -18.75 L 30.59375 -19.6875 C 29.457031 -21.101562 27.210938 -24.128906 23.859375 -28.765625 C 20.515625 -33.398438 18.695312 -35.882812 18.40625 -36.21875 L 18.40625 -7.5 C 18.40625 -6.195312 18.363281 -5.21875 18.28125 -4.5625 C 18.195312 -3.90625 17.925781 -3.179688 17.46875 -2.390625 C 16.613281 -0.847656 14.398438 -0.078125 10.828125 -0.078125 C 7.359375 -0.078125 5.195312 -0.847656 4.34375 -2.390625 C 3.894531 -3.179688 3.625 -3.914062 3.53125 -4.59375 C 3.445312 -5.28125 3.40625 -6.304688 3.40625 -7.671875 L 3.40625 -54.96875 C 3.40625 -56.28125 3.445312 -57.257812 3.53125 -57.90625 C 3.625 -58.5625 3.894531 -59.316406 4.34375 -60.171875 C 5.195312 -61.648438 7.414062 -62.390625 11 -62.390625 C 12.53125 -62.390625 13.847656 -62.203125 14.953125 -61.828125 C 16.066406 -61.460938 16.789062 -61.082031 17.125 -60.6875 L 17.640625 -60.171875 L 36.984375 -34.78125 C 46.648438 -47.5625 53.101562 -56 56.34375 -60.09375 C 57.300781 -61.625 59.582031 -62.390625 63.1875 -62.390625 C 66.800781 -62.390625 69.007812 -61.625 69.8125 -60.09375 Z M 69.8125 -60.09375 "/></g></g></g><g fill="#000000" fill-opacity="1"><g transform="translate(703.707195, 260.870653)"><g><path d="M 39.46875 -58.046875 L 62.484375 -10.484375 C 63.441406 -8.546875 63.921875 -7.097656 63.921875 -6.140625 C 63.921875 -4.085938 62.273438 -2.238281 58.984375 -0.59375 C 57.046875 0.375 55.523438 0.859375 54.421875 0.859375 C 53.316406 0.859375 52.40625 0.597656 51.6875 0.078125 C 50.976562 -0.429688 50.46875 -0.96875 50.15625 -1.53125 C 49.84375 -2.101562 49.40625 -2.957031 48.84375 -4.09375 L 44.40625 -13.296875 L 20.796875 -13.296875 L 16.359375 -4.09375 C 15.796875 -2.957031 15.359375 -2.132812 15.046875 -1.625 C 14.734375 -1.113281 14.21875 -0.585938 13.5 -0.046875 C 12.789062 0.492188 11.882812 0.765625 10.78125 0.765625 C 9.675781 0.765625 8.15625 0.28125 6.21875 -0.6875 C 2.925781 -2.269531 1.28125 -4.085938 1.28125 -6.140625 C 1.28125 -7.097656 1.765625 -8.546875 2.734375 -10.484375 L 25.734375 -58.125 C 26.359375 -59.4375 27.3125 -60.488281 28.59375 -61.28125 C 29.875 -62.082031 31.222656 -62.484375 32.640625 -62.484375 C 35.710938 -62.484375 37.988281 -61.003906 39.46875 -58.046875 Z M 32.5625 -37.59375 L 26.9375 -25.90625 L 38.265625 -25.90625 Z M 32.5625 -37.59375 "/></g></g></g><g fill="#000000" fill-opacity="1"><g transform="translate(782.374829, 260.870653)"><g><path d="M 51.21875 -10.5625 C 52.070312 -8.519531 52.5 -7.046875 52.5 -6.140625 C 52.5 -3.972656 50.738281 -2.15625 47.21875 -0.6875 C 45.40625 0.113281 43.941406 0.515625 42.828125 0.515625 C 41.722656 0.515625 40.8125 0.242188 40.09375 -0.296875 C 39.382812 -0.835938 38.863281 -1.390625 38.53125 -1.953125 C 37.957031 -3.035156 35.738281 -8.179688 31.875 -17.390625 L 29.234375 -17.21875 L 18.5 -17.21875 L 18.5 -7.578125 C 18.5 -6.273438 18.453125 -5.296875 18.359375 -4.640625 C 18.273438 -3.992188 18.007812 -3.242188 17.5625 -2.390625 C 16.757812 -0.847656 14.539062 -0.078125 10.90625 -0.078125 C 6.925781 -0.078125 4.597656 -1.128906 3.921875 -3.234375 C 3.578125 -4.203125 3.40625 -5.679688 3.40625 -7.671875 L 3.40625 -54.96875 C 3.40625 -56.28125 3.445312 -57.257812 3.53125 -57.90625 C 3.625 -58.5625 3.894531 -59.316406 4.34375 -60.171875 C 5.144531 -61.710938 7.363281 -62.484375 11 -62.484375 L 29.40625 -62.484375 C 34.40625 -62.484375 39.265625 -60.660156 43.984375 -57.015625 C 46.253906 -55.253906 48.128906 -52.867188 49.609375 -49.859375 C 51.085938 -46.847656 51.828125 -43.492188 51.828125 -39.796875 C 51.828125 -33.378906 49.695312 -28.097656 45.4375 -23.953125 C 46.6875 -20.941406 48.613281 -16.476562 51.21875 -10.5625 Z M 18.5 -32.296875 L 29.40625 -32.296875 C 31.050781 -32.296875 32.695312 -32.921875 34.34375 -34.171875 C 36 -35.421875 36.828125 -37.296875 36.828125 -39.796875 C 36.828125 -42.304688 36 -44.195312 34.34375 -45.46875 C 32.695312 -46.75 30.992188 -47.390625 29.234375 -47.390625 L 18.5 -47.390625 Z M 18.5 -32.296875 "/></g></g></g><g fill="#000000" fill-opacity="1"><g transform="translate(849.621903, 260.870653)"><g><path d="M 30.171875 -31.359375 C 38.867188 -23.015625 45.035156 -16.738281 48.671875 -12.53125 C 50.546875 -10.425781 51.484375 -8.648438 51.484375 -7.203125 C 51.484375 -5.753906 50.34375 -4.046875 48.0625 -2.078125 C 45.789062 -0.117188 43.929688 0.859375 42.484375 0.859375 C 41.035156 0.859375 39.289062 -0.335938 37.25 -2.734375 L 18.5 -24.125 L 18.5 -7.5 C 18.5 -6.132812 18.453125 -5.140625 18.359375 -4.515625 C 18.273438 -3.890625 18.007812 -3.148438 17.5625 -2.296875 C 16.757812 -0.765625 14.539062 0 10.90625 0 C 6.925781 0 4.597656 -1.078125 3.921875 -3.234375 C 3.578125 -4.148438 3.40625 -5.597656 3.40625 -7.578125 L 3.40625 -54.96875 C 3.40625 -56.28125 3.445312 -57.257812 3.53125 -57.90625 C 3.625 -58.5625 3.894531 -59.316406 4.34375 -60.171875 C 5.144531 -61.710938 7.363281 -62.484375 11 -62.484375 C 14.976562 -62.484375 17.332031 -61.429688 18.0625 -59.328125 C 18.351562 -58.359375 18.5 -56.878906 18.5 -54.890625 L 18.5 -38.609375 C 26.226562 -47.304688 32.476562 -54.4375 37.25 -60 C 39.238281 -62.332031 40.96875 -63.5 42.4375 -63.5 C 43.914062 -63.5 45.789062 -62.519531 48.0625 -60.5625 C 50.34375 -58.601562 51.484375 -56.894531 51.484375 -55.4375 C 51.484375 -53.988281 50.628906 -52.269531 48.921875 -50.28125 C 45.628906 -46.476562 40.515625 -41.253906 33.578125 -34.609375 Z M 30.171875 -31.359375 "/></g></g></g><g fill="#000000" fill-opacity="1"><g transform="translate(917.550742, 260.870653)"><g><path d="M 18.5 -15.09375 L 44.75 -15.09375 C 46.050781 -15.09375 47.03125 -15.046875 47.6875 -14.953125 C 48.34375 -14.867188 49.097656 -14.601562 49.953125 -14.15625 C 51.484375 -13.351562 52.25 -11.132812 52.25 -7.5 C 52.25 -3.519531 51.195312 -1.191406 49.09375 -0.515625 C 48.125 -0.171875 46.644531 0 44.65625 0 L 10.90625 0 C 6.925781 0 4.597656 -1.078125 3.921875 -3.234375 C 3.578125 -4.148438 3.40625 -5.597656 3.40625 -7.578125 L 3.40625 -54.96875 C 3.40625 -57.875 3.941406 -59.851562 5.015625 -60.90625 C 6.097656 -61.957031 8.148438 -62.484375 11.171875 -62.484375 L 44.75 -62.484375 C 46.050781 -62.484375 47.03125 -62.4375 47.6875 -62.34375 C 48.34375 -62.257812 49.097656 -61.992188 49.953125 -61.546875 C 51.484375 -60.742188 52.25 -58.523438 52.25 -54.890625 C 52.25 -50.910156 51.195312 -48.582031 49.09375 -47.90625 C 48.125 -47.5625 46.644531 -47.390625 44.65625 -47.390625 L 18.5 -47.390625 L 18.5 -38.78125 L 35.375 -38.78125 C 36.675781 -38.78125 37.65625 -38.738281 38.3125 -38.65625 C 38.96875 -38.570312 39.722656 -38.300781 40.578125 -37.84375 C 42.109375 -37.050781 42.875 -34.835938 42.875 -31.203125 C 42.875 -27.222656 41.796875 -24.890625 39.640625 -24.203125 C 38.671875 -23.859375 37.191406 -23.6875 35.203125 -23.6875 L 18.5 -23.6875 Z M 18.5 -15.09375 "/></g></g></g><g fill="#000000" fill-opacity="1"><g transform="translate(985.39436, 260.870653)"><g><path d="M 7.5 -62.5625 L 54.890625 -62.5625 C 56.710938 -62.5625 58.046875 -62.347656 58.890625 -61.921875 C 59.742188 -61.492188 60.3125 -60.828125 60.59375 -59.921875 C 60.882812 -59.015625 61.03125 -57.820312 61.03125 -56.34375 C 61.03125 -54.863281 60.882812 -53.679688 60.59375 -52.796875 C 60.3125 -51.921875 59.832031 -51.3125 59.15625 -50.96875 C 58.132812 -50.457031 56.6875 -50.203125 54.8125 -50.203125 L 38.53125 -50.203125 L 38.53125 -7.328125 C 38.53125 -6.023438 38.484375 -5.0625 38.390625 -4.4375 C 38.304688 -3.8125 38.050781 -3.082031 37.625 -2.25 C 37.195312 -1.425781 36.441406 -0.84375 35.359375 -0.5 C 34.285156 -0.164062 32.867188 0 31.109375 0 C 29.347656 0 27.941406 -0.164062 26.890625 -0.5 C 25.835938 -0.84375 25.097656 -1.425781 24.671875 -2.25 C 24.242188 -3.082031 23.988281 -3.820312 23.90625 -4.46875 C 23.820312 -5.125 23.78125 -6.109375 23.78125 -7.421875 L 23.78125 -50.203125 L 7.421875 -50.203125 C 5.597656 -50.203125 4.257812 -50.414062 3.40625 -50.84375 C 2.550781 -51.269531 1.984375 -51.9375 1.703125 -52.84375 C 1.421875 -53.75 1.28125 -54.941406 1.28125 -56.421875 C 1.28125 -57.898438 1.421875 -59.078125 1.703125 -59.953125 C 1.984375 -60.835938 2.46875 -61.453125 3.15625 -61.796875 C 4.175781 -62.304688 5.625 -62.5625 7.5 -62.5625 Z M 7.5 -62.5625 "/></g></g></g><g fill="#000000" fill-opacity="1"><g transform="translate(1061.164262, 260.870653)"><g><path d="M 49.515625 -49.859375 C 50.992188 -46.847656 51.734375 -43.492188 51.734375 -39.796875 C 51.734375 -36.109375 50.992188 -32.769531 49.515625 -29.78125 C 48.046875 -26.800781 46.144531 -24.429688 43.8125 -22.671875 C 39.09375 -19.035156 34.207031 -17.21875 29.15625 -17.21875 L 18.5 -17.21875 L 18.5 -7.578125 C 18.5 -6.273438 18.453125 -5.296875 18.359375 -4.640625 C 18.273438 -3.992188 18.007812 -3.242188 17.5625 -2.390625 C 16.757812 -0.847656 14.539062 -0.078125 10.90625 -0.078125 C 6.925781 -0.078125 4.597656 -1.128906 3.921875 -3.234375 C 3.578125 -4.203125 3.40625 -5.679688 3.40625 -7.671875 L 3.40625 -54.96875 C 3.40625 -56.28125 3.445312 -57.257812 3.53125 -57.90625 C 3.625 -58.5625 3.894531 -59.316406 4.34375 -60.171875 C 5.144531 -61.710938 7.363281 -62.484375 11 -62.484375 L 29.234375 -62.484375 C 34.234375 -62.484375 39.09375 -60.660156 43.8125 -57.015625 C 46.144531 -55.253906 48.046875 -52.867188 49.515625 -49.859375 Z M 29.234375 -32.296875 C 30.941406 -32.296875 32.617188 -32.921875 34.265625 -34.171875 C 35.910156 -35.421875 36.734375 -37.296875 36.734375 -39.796875 C 36.734375 -42.304688 35.910156 -44.195312 34.265625 -45.46875 C 32.617188 -46.75 30.914062 -47.390625 29.15625 -47.390625 L 18.5 -47.390625 L 18.5 -32.296875 Z M 29.234375 -32.296875 "/></g></g></g><g fill="#000000" fill-opacity="1"><g transform="translate(1128.496557, 260.870653)"><g><path d="M 18.5 -12.609375 L 41.671875 -12.609375 C 43.554688 -12.609375 44.921875 -12.394531 45.765625 -11.96875 C 46.617188 -11.550781 47.1875 -10.882812 47.46875 -9.96875 C 47.757812 -9.0625 47.90625 -7.851562 47.90625 -6.34375 C 47.90625 -4.84375 47.757812 -3.632812 47.46875 -2.71875 C 47.1875 -1.8125 46.707031 -1.191406 46.03125 -0.859375 C 44.945312 -0.285156 43.46875 0 41.59375 0 L 10.90625 0 C 6.925781 0 4.597656 -1.078125 3.921875 -3.234375 C 3.578125 -4.148438 3.40625 -5.597656 3.40625 -7.578125 L 3.40625 -54.96875 C 3.40625 -56.28125 3.445312 -57.257812 3.53125 -57.90625 C 3.625 -58.5625 3.894531 -59.316406 4.34375 -60.171875 C 5.144531 -61.710938 7.363281 -62.484375 11 -62.484375 C 14.976562 -62.484375 17.332031 -61.429688 18.0625 -59.328125 C 18.351562 -58.359375 18.5 -56.878906 18.5 -54.890625 Z M 18.5 -12.609375 "/></g></g></g><g fill="#000000" fill-opacity="1"><g transform="translate(1191.993539, 260.870653)"><g><path d="M 39.46875 -58.046875 L 62.484375 -10.484375 C 63.441406 -8.546875 63.921875 -7.097656 63.921875 -6.140625 C 63.921875 -4.085938 62.273438 -2.238281 58.984375 -0.59375 C 57.046875 0.375 55.523438 0.859375 54.421875 0.859375 C 53.316406 0.859375 52.40625 0.597656 51.6875 0.078125 C 50.976562 -0.429688 50.46875 -0.96875 50.15625 -1.53125 C 49.84375 -2.101562 49.40625 -2.957031 48.84375 -4.09375 L 44.40625 -13.296875 L 20.796875 -13.296875 L 16.359375 -4.09375 C 15.796875 -2.957031 15.359375 -2.132812 15.046875 -1.625 C 14.734375 -1.113281 14.21875 -0.585938 13.5 -0.046875 C 12.789062 0.492188 11.882812 0.765625 10.78125 0.765625 C 9.675781 0.765625 8.15625 0.28125 6.21875 -0.6875 C 2.925781 -2.269531 1.28125 -4.085938 1.28125 -6.140625 C 1.28125 -7.097656 1.765625 -8.546875 2.734375 -10.484375 L 25.734375 -58.125 C 26.359375 -59.4375 27.3125 -60.488281 28.59375 -61.28125 C 29.875 -62.082031 31.222656 -62.484375 32.640625 -62.484375 C 35.710938 -62.484375 37.988281 -61.003906 39.46875 -58.046875 Z M 32.5625 -37.59375 L 26.9375 -25.90625 L 38.265625 -25.90625 Z M 32.5625 -37.59375 "/></g></g></g><g fill="#000000" fill-opacity="1"><g transform="translate(1266.399524, 260.870653)"><g><path d="M 42.453125 -16.359375 L 43.984375 -17.46875 C 45.910156 -18.601562 47.273438 -19.171875 48.078125 -19.171875 C 49.835938 -19.171875 51.738281 -17.582031 53.78125 -14.40625 C 55.03125 -12.414062 55.65625 -10.820312 55.65625 -9.625 C 55.65625 -8.4375 55.269531 -7.441406 54.5 -6.640625 C 53.738281 -5.847656 52.84375 -5.140625 51.8125 -4.515625 C 50.789062 -3.890625 49.8125 -3.289062 48.875 -2.71875 C 47.9375 -2.15625 46.019531 -1.414062 43.125 -0.5 C 40.226562 0.40625 37.429688 0.859375 34.734375 0.859375 C 32.035156 0.859375 29.304688 0.503906 26.546875 -0.203125 C 23.796875 -0.921875 20.957031 -2.117188 18.03125 -3.796875 C 15.101562 -5.472656 12.472656 -7.515625 10.140625 -9.921875 C 7.804688 -12.335938 5.882812 -15.4375 4.375 -19.21875 C 2.875 -23 2.125 -27.101562 2.125 -31.53125 C 2.125 -35.96875 2.863281 -39.988281 4.34375 -43.59375 C 5.820312 -47.207031 7.710938 -50.191406 10.015625 -52.546875 C 12.316406 -54.898438 14.945312 -56.875 17.90625 -58.46875 C 23.46875 -61.539062 29.0625 -63.078125 34.6875 -63.078125 C 37.363281 -63.078125 40.078125 -62.664062 42.828125 -61.84375 C 45.585938 -61.019531 47.675781 -60.179688 49.09375 -59.328125 L 51.140625 -58.125 C 52.160156 -57.5 52.957031 -56.988281 53.53125 -56.59375 C 55.007812 -55.40625 55.75 -54.054688 55.75 -52.546875 C 55.75 -51.035156 55.148438 -49.457031 53.953125 -47.8125 C 51.734375 -44.75 49.742188 -43.21875 47.984375 -43.21875 C 46.960938 -43.21875 45.515625 -43.84375 43.640625 -45.09375 C 41.253906 -47.019531 38.070312 -47.984375 34.09375 -47.984375 C 30.394531 -47.984375 26.757812 -46.707031 23.1875 -44.15625 C 21.476562 -42.90625 20.054688 -41.140625 18.921875 -38.859375 C 17.785156 -36.585938 17.21875 -34.015625 17.21875 -31.140625 C 17.21875 -28.273438 17.785156 -25.707031 18.921875 -23.4375 C 20.054688 -21.164062 21.503906 -19.375 23.265625 -18.0625 C 26.734375 -15.5625 30.34375 -14.3125 34.09375 -14.3125 C 35.851562 -14.3125 37.515625 -14.539062 39.078125 -15 C 40.640625 -15.457031 41.765625 -15.910156 42.453125 -16.359375 Z M 42.453125 -16.359375 "/></g></g></g><g fill="#000000" fill-opacity="1"><g transform="translate(1337.737494, 260.870653)"><g><path d="M 18.5 -15.09375 L 44.75 -15.09375 C 46.050781 -15.09375 47.03125 -15.046875 47.6875 -14.953125 C 48.34375 -14.867188 49.097656 -14.601562 49.953125 -14.15625 C 51.484375 -13.351562 52.25 -11.132812 52.25 -7.5 C 52.25 -3.519531 51.195312 -1.191406 49.09375 -0.515625 C 48.125 -0.171875 46.644531 0 44.65625 0 L 10.90625 0 C 6.925781 0 4.597656 -1.078125 3.921875 -3.234375 C 3.578125 -4.148438 3.40625 -5.597656 3.40625 -7.578125 L 3.40625 -54.96875 C 3.40625 -57.875 3.941406 -59.851562 5.015625 -60.90625 C 6.097656 -61.957031 8.148438 -62.484375 11.171875 -62.484375 L 44.75 -62.484375 C 46.050781 -62.484375 47.03125 -62.4375 47.6875 -62.34375 C 48.34375 -62.257812 49.097656 -61.992188 49.953125 -61.546875 C 51.484375 -60.742188 52.25 -58.523438 52.25 -54.890625 C 52.25 -50.910156 51.195312 -48.582031 49.09375 -47.90625 C 48.125 -47.5625 46.644531 -47.390625 44.65625 -47.390625 L 18.5 -47.390625 L 18.5 -38.78125 L 35.375 -38.78125 C 36.675781 -38.78125 37.65625 -38.738281 38.3125 -38.65625 C 38.96875 -38.570312 39.722656 -38.300781 40.578125 -37.84375 C 42.109375 -37.050781 42.875 -34.835938 42.875 -31.203125 C 42.875 -27.222656 41.796875 -24.890625 39.640625 -24.203125 C 38.671875 -23.859375 37.191406 -23.6875 35.203125 -23.6875 L 18.5 -23.6875 Z M 18.5 -15.09375 "/></g></g></g></g></g></g></g></g></g></mask><clipPath id="32feed40de"><path d="M 0 7.703125 L 1440 7.703125 L 1440 452.664062 L 0 452.664062 Z M 0 7.703125 " clip-rule="nonzero"/></clipPath><clipPath id="7f834a6dfb"><rect x="0" width="1440" y="0" height="460"/></clipPath><clipPath id="2fcc03b399"><rect x="0" width="1440" y="0" height="460"/></clipPath><clipPath id="07dc9a3462"><rect x="0" width="1440" y="0" height="463"/></clipPath></defs><g transform="matrix(1, 0, 0, 1, 0, 0.000000000000039746)"><g clip-path="url(#5f1cfbd443)"><g transform="matrix(1, 0, 0, 1, 0, 0.000000000000039746)"><g clip-path="url(#e8c04de3ef)"><g mask="url(#07253b2578)"><g transform="matrix(1, 0, 0, 1, 0, 0.000000000000039746)"><g clip-path="url(#9df72ca657)"><g clip-path="url(#1990cba75b)"><rect x="-772.992" fill="url(#fb392e5970)" width="2985.984" height="1679.615985" y="-434.807996"/></g></g></g></g></g></g></g></g><g transform="matrix(1, 0, 0, 1, 0, 290)"><g clip-path="url(#07dc9a3462)"><g clip-path="url(#b6d28df4af)"><g transform="matrix(1, 0, 0, 1, 0, 2)"><g clip-path="url(#2fcc03b399)"><g clip-path="url(#ba19ce3127)"><g mask="url(#26e4024f40)"><g transform="matrix(1, 0, 0, 1, 0, 0.000000000000056843)"><g clip-path="url(#7f834a6dfb)"><g clip-path="url(#32feed40de)"><path fill="url(#0e07fec2a0)" d="M 0 7.703125 L 0 452.664062 L 1440 452.664062 L 1440 7.703125 Z M 0 7.703125 " fill-rule="nonzero"/></g></g></g></g></g></g></g></g></g></g></svg>